<svg width="1920" height="6282" viewBox="0 0 1920 6282" fill="none" xmlns="http://www.w3.org/2000/svg">
<path d="M1748.66 5937.48L1612.52 5776.37L1809.54 5827.05L1863.24 5631.91L1942.65 5827.05L2152.14 5817.59L1988.03 5951.85L2136.64 6282L1942.65 5937.48L2034.54 5864.11L1911.64 5874.32L1871.56 5762L1836.39 5874.32L1722.94 5843.69L1796.31 5937.48L1739.2 6041.85L1847.73 5993.07L1974.79 6209.01L1836.39 6041.85L1635.21 6122.03L1748.66 5937.48Z" fill="#F7F7F8"/>
<path d="M1827.43 5930.65L1774.21 5867.66L1851.23 5887.48L1872.23 5811.18L1903.28 5887.48L1985.19 5883.78L1921.02 5936.27L1979.12 6065.35L1903.28 5930.65L1939.21 5901.97L1891.15 5905.96L1875.48 5862.04L1861.73 5905.96L1817.38 5893.98L1846.06 5930.65L1823.73 5971.46L1866.17 5952.39L1915.85 6036.82L1861.73 5971.46L1783.08 6002.81L1827.43 5930.65Z" fill="#F7F7F8"/>
<path d="M1878.45 5942.99L1892.03 5935.47L2018.08 6179.79L1878.45 5942.99Z" fill="#F7F7F8"/>
<path d="M-746.244 5717.99L804.965 4556.73L274.231 4026L540.507 4588.55L-746.244 5717.99Z" fill="#F6F7F8"/>
<path d="M-732.13 3311.22L791.037 4509.01L1166.32 3859L691.854 4261.8L-732.13 3311.22Z" fill="#F6F7F8"/>
<path d="M345.762 1607.09L799.711 953.996L807.411 1721.07L1570.61 1726.2L937.323 2205.91L1176.22 2959.75L527.037 2492.99L-530.473 3356.53L535.094 2313.68L892.012 2576.78L734.872 2139.1L1104.87 1883.47L661.428 1865L662.285 1421.89L392.265 1780.64L-43.6531 1674.52L239.966 2022.22L-422.577 2695.77L51.1972 2028.51L-437.176 1373.99L345.762 1607.09Z" fill="#F6F7F8"/>
<path d="M440.297 2085.17L480.98 2127.3L-285.948 2824.87L440.297 2085.17Z" fill="#F6F7F8"/>
<path d="M435.5 1887.35L612.986 1632L615.996 1931.92L914.392 1933.92L666.789 2121.48L760.195 2416.22L506.375 2233.73L92.9072 2571.35L509.525 2163.62L649.073 2266.48L587.635 2095.36L732.296 1995.41L558.919 1988.19L559.254 1814.94L453.681 1955.21L283.245 1913.72L394.135 2049.66L135.093 2313.01L320.33 2052.12L129.385 1796.22L435.5 1887.35Z" fill="#F6F7F8"/>
<path d="M1488.03 1442.42L1259.19 1171.61L1590.37 1256.79L1680.63 928.769L1814.12 1256.79L2166.27 1240.9L1890.4 1466.58L2140.21 2021.55L1814.12 1442.42L1968.58 1319.09L1762 1336.26L1694.62 1147.45L1635.5 1336.26L1444.8 1284.76L1568.12 1442.42L1472.14 1617.87L1654.57 1535.87L1868.15 1898.86L1635.5 1617.87L1297.33 1752.64L1488.03 1442.42Z" fill="#F7F7F8"/>
<path d="M1620.44 1430.95L1530.97 1325.07L1660.46 1358.37L1695.75 1230.12L1747.94 1358.37L1885.62 1352.16L1777.76 1440.39L1875.43 1657.38L1747.94 1430.95L1808.33 1382.73L1727.56 1389.44L1701.21 1315.62L1678.1 1389.44L1603.54 1369.31L1651.76 1430.95L1614.23 1499.55L1685.56 1467.49L1769.06 1609.41L1678.1 1499.55L1545.88 1552.24L1620.44 1430.95Z" fill="#F7F7F8"/>
<path d="M1706.18 1451.71L1729.01 1439.05L1940.89 1849.76L1706.18 1451.71Z" fill="#F7F7F8"/>
</svg>
