<svg width="104" height="104" viewBox="0 0 104 104" fill="none" xmlns="http://www.w3.org/2000/svg">
<path fill-rule="evenodd" clip-rule="evenodd" d="M95.7916 41.981H26.4911L93.055 22.6984C93.5723 22.5485 94.0087 22.1985 94.269 21.7272C94.5292 21.2551 94.5911 20.6997 94.4412 20.1824L90.9579 8.15753C89.5662 3.35474 85.0943 0 80.0828 0C79.0267 0 77.9746 0.149963 76.9542 0.445129L14.4575 18.5494C11.567 19.3865 9.17153 21.3083 7.71078 23.9592C6.25082 26.6102 5.90805 29.6626 6.74514 32.5524L10.1483 44.3003V92.6956C10.1483 98.929 15.2193 104 21.4519 104H45.8602C46.9821 104 47.8914 103.091 47.8914 101.969C47.8914 100.847 46.9821 99.9375 45.8602 99.9375H21.4527C17.4592 99.9375 14.2108 96.6891 14.2108 92.6956V65.0532H24.617H24.6217H24.6257H40.5329H40.5377H40.5424H56.4497H56.4544H56.4592H72.3664H72.3712H72.3751H93.7604V92.6956C93.7604 96.6891 90.512 99.9375 86.5185 99.9375H62.1102C60.989 99.9375 60.0789 100.847 60.0789 101.969C60.0789 103.091 60.989 104 62.1102 104H86.5185C92.7519 104 97.8229 98.929 97.8229 92.6956V44.0123C97.8229 42.8903 96.9136 41.981 95.7916 41.981ZM59.9742 60.9907L68.6046 46.0435H79.8297L71.2 60.9907H59.9742ZM44.0575 60.9907L52.6879 46.0435H63.9129L55.2833 60.9907H44.0575ZM28.1415 60.9907L36.7711 46.0435H47.997L39.3665 60.9907H28.1415ZM35.6936 34.6947L21.2416 20.814L32.0699 17.6774C32.1461 17.7885 32.2349 17.8932 32.3365 17.9908L46.7885 31.8716L35.9602 35.0081C35.8841 34.897 35.7944 34.7915 35.6936 34.6947ZM62.9124 9.13348L77.3644 23.0142L66.5361 26.1508C66.4599 26.0397 66.371 25.9341 66.2695 25.8373L51.8175 11.9566L62.6458 8.82007C62.7219 8.93115 62.8108 9.03589 62.9124 9.13348ZM47.624 13.5626L62.0761 27.4425L51.2478 30.5798C51.1716 30.4688 51.0827 30.3632 50.9812 30.2664L36.5291 16.3857L47.3574 13.2491C47.4344 13.3594 47.5233 13.465 47.624 13.5626ZM78.0849 4.34735C78.7371 4.15851 79.4091 4.0625 80.0828 4.0625C83.2971 4.0625 86.1638 6.21118 87.0557 9.28821L89.974 19.3611L81.8244 21.7217C81.7475 21.6106 81.6586 21.5059 81.557 21.4083L67.1058 7.52832L78.0849 4.34735ZM11.2694 25.9191C12.2057 24.2187 13.7395 22.9872 15.5882 22.4517L16.7816 22.1057C16.8585 22.2168 16.9474 22.3223 17.0482 22.4191L31.5002 36.2999L13.5657 41.4954L10.6474 31.4225C10.1118 29.5745 10.3332 27.6202 11.2694 25.9191ZM14.2108 46.0435H32.0802L23.4506 60.9907H14.2108V46.0435ZM75.8909 60.9907L84.5206 46.0435H93.7604V60.9907H75.8909Z" fill="#0650BF"/>
<path fill-rule="evenodd" clip-rule="evenodd" d="M68.0312 82.2887C68.0312 81.5627 67.644 80.8922 67.0156 80.5296L49.1699 70.2265C48.5415 69.8639 47.7671 69.8639 47.1387 70.2265C46.5103 70.5892 46.123 71.2596 46.123 71.9856V92.5917C46.123 93.3169 46.5103 93.9874 47.1387 94.35C47.4529 94.5317 47.8036 94.623 48.1543 94.623C48.505 94.623 48.8557 94.5317 49.1699 94.35L67.0156 84.0478C67.644 83.6852 68.0312 83.0147 68.0312 82.2887ZM50.1855 89.0735V75.5038L61.9374 82.2887L50.1855 89.0735Z" fill="#E31E24"/>
<path fill-rule="evenodd" clip-rule="evenodd" d="M53.9853 99.9375C52.8666 99.9375 51.9541 100.85 51.9541 101.969C51.9541 103.088 52.8666 104 53.9853 104C55.1049 104 56.0166 103.088 56.0166 101.969C56.0166 100.85 55.1049 99.9375 53.9853 99.9375Z" fill="#9E8E8E"/>
</svg>
