<svg width="94" height="106" viewBox="0 0 94 106" fill="none" xmlns="http://www.w3.org/2000/svg">
<path d="M93.4789 93.5063L77.9102 66.5407C78.4694 65.8892 79.2294 65.4072 80.1163 65.1982C82.5687 64.6203 84.6023 62.9869 85.6954 60.7169C86.7887 58.4469 86.7976 55.8386 85.7205 53.5611C84.8959 51.8179 85.3671 49.7533 86.8663 48.5405C88.8252 46.9557 89.9487 44.6019 89.9487 42.0824C89.9487 39.5629 88.8252 37.2088 86.8663 35.6242C85.3671 34.4115 84.8959 32.3468 85.7205 30.6037C86.7978 28.326 86.7887 25.7177 85.6954 23.4477C84.6023 21.1776 82.5687 19.5442 80.1161 18.9664C78.2392 18.5242 76.9188 16.8686 76.9053 14.9402C76.8879 12.4207 75.7479 10.0747 73.778 8.50377C71.8082 6.93287 69.267 6.34347 66.8071 6.88712C64.9238 7.30282 63.016 6.38425 62.1672 4.6527C61.0582 2.39033 59.0134 0.77119 56.5569 0.210567C54.1001 -0.350264 51.5554 0.221539 49.5745 1.77857C48.0587 2.97041 45.9411 2.97041 44.425 1.77857C42.4442 0.221539 39.8995 -0.34985 37.4429 0.210567C34.9863 0.77119 32.9416 2.39033 31.8325 4.6527C30.9837 6.38425 29.0752 7.30344 27.1929 6.88712C24.7326 6.34388 22.1916 6.93287 20.222 8.50377C18.2521 10.0747 17.1122 12.4207 17.0946 14.9402C17.0812 16.8684 15.7608 18.5242 13.8837 18.9664C11.4313 19.5442 9.39766 21.1776 8.30457 23.4477C7.21127 25.7177 7.20237 28.326 8.27952 30.6035C9.1041 32.3466 8.63291 34.4113 7.13364 35.624C5.17477 37.2088 4.05124 39.5627 4.05124 42.0822C4.05124 44.6017 5.17477 46.9557 7.13364 48.5403C8.63291 49.7531 9.1041 51.8177 8.27952 53.5609C7.20216 55.8386 7.21127 58.4469 8.30457 60.7169C9.39766 62.9869 11.4313 64.6203 13.8839 65.1982C14.7708 65.407 15.5308 65.8892 16.0899 66.5407L0.521471 93.5063C0.102245 94.2326 0.16249 95.1399 0.673841 95.8043C1.1854 96.4686 2.04704 96.7587 2.8563 96.5394L13.6996 93.5976L16.5738 104.459C16.7882 105.27 17.4706 105.871 18.3018 105.982C18.3935 105.994 18.485 106 18.5759 106C19.3081 106 19.9951 105.611 20.3681 104.965L33.6525 81.9558C34.7046 82.9296 36.002 83.6252 37.4433 83.9542C39.8995 84.5144 42.4446 83.9432 44.4256 82.3862C45.9415 81.1943 48.0591 81.1943 49.5752 82.3862C51.0575 83.5513 52.8553 84.1647 54.6959 84.1647C55.3149 84.1647 55.9391 84.0954 56.5573 83.9542C57.9986 83.6252 59.2962 82.9296 60.3481 81.9558L73.6325 104.965C74.0055 105.611 74.6925 106 75.4247 106C75.5154 106 75.6071 105.994 75.6988 105.982C76.53 105.871 77.2124 105.27 77.4268 104.459L80.301 93.5976L91.1443 96.5394C91.9536 96.7593 92.8154 96.4686 93.3268 95.8043C93.8381 95.1399 93.8983 94.2326 93.4789 93.5063ZM19.2924 98.547L17.1696 90.5247C17.0284 89.9919 16.6808 89.537 16.2034 89.2615C15.7258 88.9857 15.1583 88.912 14.6263 89.0563L6.61732 91.229L17.6422 72.1335C18.1639 73.5007 19.0429 74.7203 20.2224 75.661C22.1922 77.2319 24.7334 77.8213 27.1933 77.2776C28.5826 76.9708 29.9844 77.3923 30.9655 78.3291L19.2924 98.547ZM55.6358 79.9176C54.4032 80.1985 53.1273 79.912 52.134 79.1313C50.6225 77.943 48.8117 77.3491 47.0002 77.3491C45.1891 77.3491 43.3775 77.9432 41.8664 79.1313C40.8731 79.9122 39.5972 80.199 38.3646 79.9176C37.1326 79.6365 36.107 78.8243 35.5507 77.6896C33.8585 74.2373 30.054 72.4053 26.3 73.2346C25.0659 73.5073 23.7917 73.2117 22.8038 72.4237C21.8158 71.6358 21.244 70.4593 21.2351 69.1956C21.2084 65.3509 18.5759 62.0499 14.8335 61.1682C13.6034 60.8784 12.5836 60.0592 12.0352 58.9205C11.487 57.7819 11.4824 56.4739 12.0227 55.3314C13.6665 51.8558 12.727 47.7395 9.7378 45.3215C8.75526 44.5267 8.19195 43.3461 8.19195 42.0824C8.19195 40.8187 8.75547 39.638 9.73801 38.8433C12.727 36.4252 13.6667 32.3089 12.0227 28.8332C11.4824 27.6908 11.487 26.3826 12.0354 25.2442C12.5836 24.1056 13.6036 23.2864 14.8335 22.9965C18.5759 22.1148 21.2084 18.8138 21.2351 14.9692C21.244 13.7055 21.8156 12.5288 22.8038 11.741C23.7917 10.9531 25.0657 10.6572 26.3002 10.9301C30.0538 11.7588 33.8585 9.92749 35.5507 6.47514C36.107 5.34044 37.1326 4.52828 38.3646 4.24714C39.597 3.9662 40.8731 4.25252 41.8664 5.03342C44.8892 7.40986 49.1112 7.40986 52.134 5.03342C53.1275 4.25252 54.4034 3.9662 55.6358 4.24714C56.8678 4.52828 57.8934 5.34044 58.4497 6.47514C60.1419 9.92749 63.9462 11.7588 67.7004 10.9301C68.9341 10.657 70.2087 10.9531 71.1966 11.741C72.1846 12.529 72.7564 13.7055 72.7653 14.9692C72.792 18.8138 75.4245 22.1148 79.1669 22.9965C80.397 23.2864 81.4168 24.1056 81.9652 25.2442C82.5134 26.3829 82.518 27.6908 81.9777 28.8334C80.3339 32.3089 81.2734 36.4252 84.2626 38.8433C85.2451 39.638 85.8084 40.8187 85.8084 42.0824C85.8084 43.3461 85.2449 44.5267 84.2624 45.3215C81.2734 47.7395 80.3337 51.8558 81.9777 55.3316C82.518 56.4739 82.5134 57.7821 81.965 58.9205C81.4168 60.0592 80.3968 60.8784 79.1669 61.1682C75.4245 62.0499 72.792 65.3509 72.7653 69.1956C72.7564 70.4593 72.1848 71.636 71.1966 72.4237C70.2087 73.2117 68.9345 73.5071 67.7002 73.2346C63.9462 72.4051 60.1419 74.2373 58.4497 77.6896C57.8934 78.8243 56.8678 79.6363 55.6358 79.9176ZM79.3741 89.0563C78.8419 88.912 78.2744 88.9859 77.797 89.2615C77.3196 89.5372 76.9718 89.9919 76.8308 90.5247L74.708 98.547L63.0351 78.3291C64.0164 77.3921 65.4182 76.9704 66.8071 77.2776C69.2676 77.8211 71.8082 77.2319 73.778 75.661C74.9574 74.7205 75.8365 73.5007 76.3582 72.1335L87.3831 91.229L79.3741 89.0563Z" fill="#0650BF"/>
<path d="M56.8499 57.7382C57.277 57.7382 57.704 57.6063 58.0668 57.3427C58.7905 56.8169 59.0946 55.8855 58.8207 55.034L55.5574 44.8881L64.1632 38.565C64.8843 38.0352 65.1834 37.1019 64.9048 36.2517C64.6259 35.4014 63.8324 34.8265 62.9376 34.8265H52.2883L48.9674 24.7082C48.6883 23.8581 47.895 23.2834 47.0005 23.2834C46.1059 23.2834 45.3124 23.8581 45.0335 24.7082L41.7126 34.8265H31.0633C30.1685 34.8265 29.3748 35.4014 29.0961 36.2517C28.8173 37.1019 29.1164 38.0352 29.8377 38.565L38.4435 44.8881L35.1802 55.034C34.9063 55.8857 35.2104 56.8169 35.9342 57.3427C36.6581 57.8686 37.6378 57.8698 38.363 57.3463L47.0009 51.1094L55.6388 57.3463C55.9998 57.6075 56.4246 57.7382 56.8499 57.7382ZM48.212 46.8776C47.8501 46.6164 47.4251 46.4858 47 46.4858C46.575 46.4858 46.15 46.6164 45.7881 46.8776L41.0526 50.2969L42.8411 44.7364C43.1138 43.8886 42.8138 42.9614 42.096 42.4341L37.3769 38.9666H43.2117C44.1062 38.9666 44.8998 38.3919 45.1786 37.5419L47 31.9922L48.8214 37.5419C49.1005 38.3919 49.8938 38.9666 50.7884 38.9666H56.6232L51.904 42.4341C51.1863 42.9614 50.8863 43.8884 51.159 44.7364L52.9474 50.2969L48.212 46.8776Z" fill="#E31E24"/>
<path d="M75.9835 42.0821C75.9835 26.1006 62.9815 13.0986 47.0001 13.0986C31.0186 13.0986 18.0166 26.1006 18.0166 42.0821C18.0166 54.2401 25.6925 65.1927 37.1171 69.3363C38.1918 69.7259 39.3793 69.1709 39.7693 68.096C40.1591 67.0211 39.6039 65.8339 38.529 65.4438C28.7365 61.8923 22.1573 52.5039 22.1573 42.0821C22.1573 28.3837 33.3019 17.2391 47.0003 17.2391C60.6987 17.2391 71.8432 28.3837 71.8432 42.0821C71.8432 52.5046 65.2634 61.8931 55.4703 65.4444C54.3954 65.8343 53.84 67.0216 54.2298 68.0964C54.5351 68.9382 55.3295 69.4615 56.176 69.4615C56.4104 69.4615 56.6487 69.4214 56.8818 69.3369C68.307 65.1937 75.9835 54.2409 75.9835 42.0821Z" fill="#E31E24"/>
<path d="M47.0002 66.9253C46.4558 66.9253 45.9216 67.1468 45.5365 67.5319C45.1515 67.917 44.9299 68.4511 44.9299 68.9956C44.9299 69.5401 45.1515 70.0742 45.5365 70.4593C45.9216 70.8444 46.4558 71.0659 47.0002 71.0659C47.5447 71.0659 48.0789 70.8444 48.464 70.4593C48.849 70.0742 49.0706 69.5401 49.0706 68.9956C49.0706 68.4511 48.849 67.917 48.464 67.5319C48.0789 67.1468 47.5447 66.9253 47.0002 66.9253Z" fill="#9E8E8E"/>
</svg>
