<svg width="112" height="102" viewBox="0 0 112 102" fill="none" xmlns="http://www.w3.org/2000/svg">
<path d="M93.3555 25.1741L33.3922 0.799316L15.1774 45.1838L13.9615 48.1658L16.9792 49.3975L18.195 46.3942L35.1724 5.0348L84.7366 25.1741H36.2581V91.038L5.08226 78.3535L12.3115 60.7205L10.8137 60.1157L12.3115 60.7205L13.2668 58.4087L10.2708 57.177L9.31573 59.5106L0.848572 80.1254L36.2581 94.5387V101.799H111.484V52.7686V52.2069V49.5273H108.227V52.2069V52.7686V98.5579H39.5144V95.8566V28.4154H101.324H108.227V36.562V39.8035H111.484V36.562V25.1741H93.3555Z" fill="#0650BF"/>
<path d="M108.227 43.0448H111.484V46.2861H108.227V43.0448Z" fill="#0650BF"/>
<path d="M15.7192 52.4143L14.4881 55.416L11.4724 54.1907L12.7034 51.189L15.7192 52.4143Z" fill="#216AE0"/>
<path d="M46.071 91.3837H47.1132H62.7227H65.5234H101.432H101.671V36.0217H46.071V91.3837ZM68.2372 88.1426L82.9348 61.6284L86.7775 69.3428H79.9823V72.5843H88.384L96.1562 88.1643H68.2372V88.1426ZM98.4142 39.2633V85.355L83.0651 54.6271L64.5029 88.1426H52.6057L67.3252 61.5637L70.6905 68.0679L73.578 66.5769L67.4118 54.6489L49.3276 87.3862V39.2633H98.4142Z" fill="#E31E24"/>
<path d="M89.4697 54.0435C92.9214 54.0435 95.722 51.2559 95.722 47.8202C95.722 44.3844 92.9214 41.5968 89.4697 41.5968C86.0176 41.5968 83.2169 44.3844 83.2169 47.8202C83.2169 51.2559 86.0176 54.0435 89.4697 54.0435ZM89.4697 44.8384C91.1195 44.8384 92.4657 46.178 92.4657 47.8204C92.4657 49.4625 91.1195 50.8024 89.4697 50.8024C87.8195 50.8024 86.4737 49.4627 86.4737 47.8204C86.4737 46.178 87.8195 44.8384 89.4697 44.8384Z" fill="#E31E24"/>
</svg>
