<svg width="105" height="105" viewBox="0 0 105 105" fill="none" xmlns="http://www.w3.org/2000/svg">
<path d="M97.6172 8.20312H96.7969V4.92188C96.7969 4.48675 96.624 4.06945 96.3163 3.76178C96.0087 3.4541 95.5914 3.28125 95.1562 3.28125H88.5938C88.1586 3.28125 87.7413 3.4541 87.4337 3.76178C87.126 4.06945 86.9531 4.48675 86.9531 4.92188V8.20312H77.1094V4.92188C77.1094 4.48675 76.9365 4.06945 76.6288 3.76178C76.3212 3.4541 75.9039 3.28125 75.4688 3.28125H68.9062C68.4711 3.28125 68.0538 3.4541 67.7462 3.76178C67.4385 4.06945 67.2656 4.48675 67.2656 4.92188V8.20312H57.4219V4.92188C57.4219 4.48675 57.249 4.06945 56.9413 3.76178C56.6337 3.4541 56.2164 3.28125 55.7812 3.28125H49.2188C48.7836 3.28125 48.3663 3.4541 48.0587 3.76178C47.751 4.06945 47.5781 4.48675 47.5781 4.92188V8.20312H37.7344V4.92188C37.7344 4.48675 37.5615 4.06945 37.2538 3.76178C36.9462 3.4541 36.5289 3.28125 36.0938 3.28125H29.5312C29.0961 3.28125 28.6788 3.4541 28.3712 3.76178C28.0635 4.06945 27.8906 4.48675 27.8906 4.92188V8.20312H18.0469V4.92188C18.0469 4.48675 17.874 4.06945 17.5663 3.76178C17.2587 3.4541 16.8414 3.28125 16.4062 3.28125H9.84375C9.40863 3.28125 8.99133 3.4541 8.68365 3.76178C8.37598 4.06945 8.20312 4.48675 8.20312 4.92188V8.20312H7.38281C5.86041 8.20481 4.40084 8.81033 3.32433 9.88683C2.24783 10.9633 1.64231 12.4229 1.64062 13.9453V86.1328C1.64231 87.6552 2.24783 89.1148 3.32433 90.1913C4.40084 91.2678 5.86041 91.8733 7.38281 91.875H28.4136C34.8433 98.1842 43.4918 101.719 52.5 101.719C61.5082 101.719 70.1567 98.1842 76.5864 91.875H97.6172C99.1396 91.8733 100.599 91.2678 101.676 90.1913C102.752 89.1148 103.358 87.6552 103.359 86.1328V13.9453C103.358 12.4229 102.752 10.9633 101.676 9.88683C100.599 8.81033 99.1396 8.20481 97.6172 8.20312ZM90.2344 6.5625H93.5156V13.125H90.2344V6.5625ZM70.5469 6.5625H73.8281V13.125H70.5469V6.5625ZM50.8594 6.5625H54.1406V13.125H50.8594V6.5625ZM31.1719 6.5625H34.4531V13.125H31.1719V6.5625ZM11.4844 6.5625H14.7656V13.125H11.4844V6.5625ZM52.5 98.4375C35.3124 98.4375 21.3281 84.4532 21.3281 67.2656C21.3281 50.078 35.3124 36.0938 52.5 36.0938C69.6876 36.0938 83.6719 50.078 83.6719 67.2656C83.6719 84.4532 69.6876 98.4375 52.5 98.4375ZM100.078 86.1328C100.078 86.7853 99.8181 87.411 99.3567 87.8724C98.8953 88.3338 98.2697 88.5932 97.6172 88.5938H79.5396C84.3483 82.5255 86.9613 75.0082 86.9531 67.2656C86.9531 48.2672 71.4984 32.8125 52.5 32.8125C33.5016 32.8125 18.0469 48.2672 18.0469 67.2656C18.0397 75.008 20.6526 82.525 25.4604 88.5938H7.38281C6.7303 88.5932 6.10466 88.3338 5.64327 87.8724C5.18187 87.411 4.92242 86.7853 4.92188 86.1328V21.3281H100.078V86.1328ZM100.078 18.0469H4.92188V13.9453C4.92242 13.2928 5.18187 12.6672 5.64327 12.2058C6.10466 11.7444 6.7303 11.4849 7.38281 11.4844H8.20312V14.7656C8.20312 15.2007 8.37598 15.618 8.68365 15.9257C8.99133 16.2334 9.40863 16.4062 9.84375 16.4062H16.4062C16.8414 16.4062 17.2587 16.2334 17.5663 15.9257C17.874 15.618 18.0469 15.2007 18.0469 14.7656V11.4844H27.8906V14.7656C27.8906 15.2007 28.0635 15.618 28.3712 15.9257C28.6788 16.2334 29.0961 16.4062 29.5312 16.4062H36.0938C36.5289 16.4062 36.9462 16.2334 37.2538 15.9257C37.5615 15.618 37.7344 15.2007 37.7344 14.7656V11.4844H47.5781V14.7656C47.5781 15.2007 47.751 15.618 48.0587 15.9257C48.3663 16.2334 48.7836 16.4062 49.2188 16.4062H55.7812C56.2164 16.4062 56.6337 16.2334 56.9413 15.9257C57.249 15.618 57.4219 15.2007 57.4219 14.7656V11.4844H67.2656V14.7656C67.2656 15.2007 67.4385 15.618 67.7462 15.9257C68.0538 16.2334 68.4711 16.4062 68.9062 16.4062H75.4688C75.9039 16.4062 76.3212 16.2334 76.6288 15.9257C76.9365 15.618 77.1094 15.2007 77.1094 14.7656V11.4844H86.9531V14.7656C86.9531 15.2007 87.126 15.618 87.4337 15.9257C87.7413 16.2334 88.1586 16.4062 88.5938 16.4062H95.1562C95.5914 16.4062 96.0087 16.2334 96.3163 15.9257C96.624 15.618 96.7969 15.2007 96.7969 14.7656V11.4844H97.6172C98.2697 11.4849 98.8953 11.7444 99.3567 12.2058C99.8181 12.6672 100.078 13.2928 100.078 13.9453V18.0469Z" fill="#0650BF"/>
<path d="M54.1406 41.0156C54.1406 40.5805 53.9678 40.1632 53.6601 39.8555C53.3524 39.5478 52.9351 39.375 52.5 39.375C37.1212 39.375 24.6094 51.8866 24.6094 67.2656C24.6094 67.7007 24.7822 68.118 25.0899 68.4257C25.3976 68.7334 25.8149 68.9062 26.25 68.9062C26.6851 68.9062 27.1024 68.7334 27.4101 68.4257C27.7178 68.118 27.8906 67.7007 27.8906 67.2656C27.898 60.7411 30.4931 54.4859 35.1067 49.8723C39.7202 45.2588 45.9755 42.6636 52.5 42.6562C52.9351 42.6562 53.3524 42.4834 53.6601 42.1757C53.9678 41.868 54.1406 41.4507 54.1406 41.0156Z" fill="#E31E24"/>
<path d="M63.8121 76.3752C63.6755 76.1028 63.4658 75.8737 63.2065 75.7137C62.9472 75.5536 62.6485 75.4688 62.3437 75.4688H59.0625V50.8594C59.0625 50.4243 58.8896 50.007 58.582 49.6993C58.2743 49.3916 57.857 49.2188 57.4219 49.2188H47.5781C47.143 49.2188 46.7257 49.3916 46.418 49.6993C46.1103 50.007 45.9375 50.4243 45.9375 50.8594V75.4688H42.6563C42.3516 75.4688 42.0529 75.5536 41.7937 75.7138C41.5345 75.874 41.3251 76.1031 41.1888 76.3757C41.0526 76.6482 40.9949 76.9533 41.0223 77.2567C41.0496 77.5602 41.1609 77.85 41.3438 78.0937L51.1875 91.2187C51.3403 91.4225 51.5385 91.5879 51.7663 91.7018C51.9941 91.8157 52.2453 91.875 52.5 91.875C52.7547 91.875 53.0059 91.8157 53.2337 91.7018C53.4615 91.5879 53.6597 91.4225 53.8125 91.2187L63.6562 78.0937C63.839 77.8499 63.9504 77.5601 63.978 77.2566C64.0055 76.9531 63.9481 76.6479 63.8121 76.3752ZM52.5 87.5007L45.9375 78.75H47.5781C48.0132 78.75 48.4305 78.5772 48.7382 78.2695C49.0459 77.9618 49.2187 77.5445 49.2187 77.1094V52.5H55.7812V77.1094C55.7812 77.5445 55.9541 77.9618 56.2618 78.2695C56.5694 78.5772 56.9867 78.75 57.4219 78.75H59.0625L52.5 87.5007Z" fill="#E31E24"/>
</svg>
